<?xml version="1.0" encoding="utf-8"?>
<!-- Generator: Adobe Illustrator 25.0.1, SVG Export Plug-In . SVG Version: 6.00 Build 0)  -->
<svg version="1.1" id="katman_1" xmlns="http://www.w3.org/2000/svg" xmlns:xlink="http://www.w3.org/1999/xlink" x="0px" y="0px"
	 viewBox="0 0 1920 1250" style="enable-background:new 0 0 1920 1250;" xml:space="preserve">
<style type="text/css">
	.st0{fill:#F5C518;}
</style>
<g>
	<path class="st0" d="M481.2,351.2h958.4c37.8,0,68.5,30.6,68.5,68.5v410.7c0,37.8-30.6,68.5-68.5,68.5H481.2
		c-37.8,0-68.5-30.6-68.5-68.5V419.6C412.7,381.8,443.4,351.2,481.2,351.2z"/>
</g>
<g transform="translate(8.000000, 7.000000)">
	<polygon points="541.6,772 627.2,772 627.2,463.9 541.6,463.9 	"/>
	<path d="M809.8,463.9l-19.2,143.9l-11.9-78.3c-3.5-25.1-6.8-46.9-9.9-65.6H661.4V772H734l0.3-203.4L764.8,772h51.7l29-207.9
		l0.2,207.9h72.4V463.9H809.8z"/>
	<path d="M952.4,772V463.9h133.6c30.2,0,54.7,24.3,54.7,54.4v199.3c0,30-24.4,54.4-54.7,54.4H952.4z M1052.2,519.4
		c-3.4-1.8-9.9-2.7-19.3-2.7v202.1c12.5,0,20.1-2.2,23-6.9c2.9-4.6,4.4-17.1,4.4-37.6V554.8c0-13.9-0.5-22.8-1.5-26.8
		C1057.8,524.1,1055.6,521.2,1052.2,519.4z"/>
	<path d="M1302,541.1h5.5c30.7,0,55.6,24.1,55.6,53.7v123.5c0,29.7-24.9,53.7-55.6,53.7h-5.5c-18.8,0-35.4-9-45.5-22.8l-4.9,18.8
		h-76.7V463.9h81.9v98.9C1267.3,549.7,1283.6,541.1,1302,541.1z M1284.5,691.3v-73c0-12.1-0.8-20-2.4-23.6c-1.6-3.6-8.1-6-12.6-6
		s-11.5,1.9-12.8,5.1v24.5v75.3v23.7c1.5,3.5,8.2,5.5,12.8,5.5c4.6,0,11.4-1.9,12.8-5.5C1283.8,713.8,1284.5,705.1,1284.5,691.3z"/>
</g>
</svg>
